<svg width="24" height="25" viewBox="0 0 24 25" fill="none" xmlns="http://www.w3.org/2000/svg">
<g clip-path="url(#clip0_912_12089)">
<path d="M19.0683 0.708984H4.93135C2.38933 0.708984 0.328613 2.7697 0.328613 5.31172V19.4487C0.328613 21.9907 2.38933 24.0515 4.93135 24.0515H19.0683C21.6104 24.0515 23.6711 21.9907 23.6711 19.4487V5.31172C23.6711 2.7697 21.6104 0.708984 19.0683 0.708984Z" fill="#383838" stroke="#383838" stroke-width="21.9178"/>
<path d="M19.8268 8.08271C19.0341 6.72459 17.959 5.64936 16.601 4.85679C15.2428 4.06418 13.76 3.66797 12.1516 3.66797C10.5435 3.66797 9.06026 4.0643 7.70234 4.85679C6.34422 5.64932 5.26907 6.72459 4.47642 8.08271C3.68389 9.44079 3.2876 10.9238 3.2876 12.5318C3.2876 14.4633 3.85112 16.2002 4.97846 17.7428C6.10567 19.2856 7.56186 20.3531 9.34692 20.9456C9.5547 20.9841 9.70852 20.957 9.80853 20.8649C9.90858 20.7726 9.95855 20.6571 9.95855 20.5188C9.95855 20.4957 9.95657 20.288 9.95273 19.8955C9.94876 19.503 9.9469 19.1606 9.9469 18.8685L9.68143 18.9144C9.51217 18.9454 9.29865 18.9586 9.04086 18.9548C8.78319 18.9512 8.5157 18.9242 8.23874 18.874C7.96167 18.8243 7.70396 18.7089 7.46541 18.528C7.22698 18.3472 7.05772 18.1105 6.95767 17.8183L6.84226 17.5527C6.76533 17.3759 6.64421 17.1795 6.47875 16.9642C6.31329 16.7487 6.14598 16.6026 5.97672 16.5257L5.89591 16.4678C5.84206 16.4294 5.79209 16.383 5.74589 16.3292C5.69972 16.2754 5.66516 16.2215 5.64208 16.1676C5.61895 16.1136 5.63811 16.0694 5.69976 16.0347C5.76141 15.9999 5.87282 15.9831 6.03448 15.9831L6.26523 16.0176C6.41913 16.0484 6.60949 16.1405 6.83656 16.2945C7.0635 16.4484 7.25007 16.6484 7.39628 16.8945C7.57335 17.2101 7.78667 17.4505 8.03686 17.616C8.28685 17.7814 8.5389 17.864 8.79277 17.864C9.04664 17.864 9.2659 17.8448 9.45065 17.8065C9.63519 17.768 9.80833 17.7102 9.96999 17.6333C10.0392 17.1175 10.2278 16.7213 10.5355 16.4444C10.0969 16.3983 9.70266 16.3289 9.35245 16.2366C9.00245 16.1442 8.64077 15.9942 8.26765 15.7862C7.89432 15.5786 7.58462 15.3207 7.33848 15.0131C7.09229 14.7053 6.89024 14.3012 6.73262 13.8012C6.57493 13.3009 6.49606 12.7239 6.49606 12.0699C6.49606 11.1387 6.80005 10.3463 7.40793 9.69224C7.12317 8.99216 7.15005 8.20734 7.48865 7.33788C7.7118 7.26855 8.04272 7.32058 8.48125 7.49364C8.91986 7.66678 9.241 7.8151 9.44499 7.93807C9.64897 8.061 9.81241 8.16518 9.93554 8.24967C10.6513 8.04969 11.3899 7.94967 12.1516 7.94967C12.9133 7.94967 13.652 8.04969 14.3678 8.24967L14.8064 7.9728C15.1063 7.78805 15.4604 7.61875 15.868 7.46486C16.2758 7.31104 16.5877 7.26867 16.8032 7.338C17.1493 8.20751 17.1802 8.99228 16.8953 9.69236C17.5032 10.3464 17.8073 11.1391 17.8073 12.07C17.8073 12.724 17.7281 13.3029 17.5707 13.8069C17.413 14.3111 17.2092 14.7148 16.9592 15.0189C16.709 15.3229 16.3973 15.5787 16.0242 15.7864C15.651 15.9941 15.2892 16.1441 14.9392 16.2365C14.589 16.3289 14.1947 16.3984 13.7562 16.4446C14.1562 16.7907 14.3562 17.337 14.3562 18.0834V20.5184C14.3562 20.6568 14.4043 20.7723 14.5006 20.8646C14.5968 20.9567 14.7486 20.9838 14.9564 20.9452C16.7417 20.3529 18.1979 19.2853 19.3251 17.7425C20.4521 16.1998 21.0159 14.463 21.0159 12.5315C21.0155 10.9237 20.619 9.44079 19.8268 8.08271Z" fill="white"/>
</g>
<defs>
<clipPath id="clip0_912_12089">
<rect y="0.379883" width="24" height="24" rx="4" fill="white"/>
</clipPath>
</defs>
</svg>
