<svg width="24" height="24" viewBox="0 0 24 24" fill="none" xmlns="http://www.w3.org/2000/svg">
<path fill-rule="evenodd" clip-rule="evenodd" d="M15 10.5C15.7538 10.4998 16.4874 10.2565 17.0919 9.80609C17.6963 9.35568 18.1393 8.72226 18.355 7.99997H21C21.2652 7.99997 21.5196 7.89461 21.7071 7.70708C21.8946 7.51954 22 7.26519 22 6.99997C22 6.73476 21.8946 6.4804 21.7071 6.29287C21.5196 6.10533 21.2652 5.99997 21 5.99997H18.355C18.139 5.27805 17.6958 4.64507 17.0914 4.19504C16.487 3.74502 15.7535 3.50195 15 3.50195C14.2464 3.50195 13.513 3.74502 12.9086 4.19504C12.3042 4.64507 11.861 5.27805 11.645 5.99997H3C2.73478 5.99997 2.48043 6.10533 2.29289 6.29287C2.10536 6.4804 2 6.73476 2 6.99997C2 7.26519 2.10536 7.51954 2.29289 7.70708C2.48043 7.89461 2.73478 7.99997 3 7.99997H11.645C11.8607 8.72226 12.3037 9.35568 12.9081 9.80609C13.5126 10.2565 14.2462 10.4998 15 10.5ZM3 16C2.73478 16 2.48043 16.1053 2.29289 16.2929C2.10536 16.4804 2 16.7348 2 17C2 17.2652 2.10536 17.5195 2.29289 17.7071C2.48043 17.8946 2.73478 18 3 18H5.145C5.36103 18.7219 5.80417 19.3549 6.40858 19.8049C7.013 20.2549 7.74645 20.498 8.5 20.498C9.25355 20.498 9.987 20.2549 10.5914 19.8049C11.1958 19.3549 11.639 18.7219 11.855 18H21C21.2652 18 21.5196 17.8946 21.7071 17.7071C21.8946 17.5195 22 17.2652 22 17C22 16.7348 21.8946 16.4804 21.7071 16.2929C21.5196 16.1053 21.2652 16 21 16H11.855C11.639 15.2781 11.1958 14.6451 10.5914 14.195C9.987 13.745 9.25355 13.502 8.5 13.502C7.74645 13.502 7.013 13.745 6.40858 14.195C5.80417 14.6451 5.36103 15.2781 5.145 16H3Z" fill="#142B3A"/>
</svg>
