<svg width="24" height="25" viewBox="0 0 24 25" fill="none" xmlns="http://www.w3.org/2000/svg">
<g clip-path="url(#clip0_912_12087)">
<path d="M22.2243 0.379883H1.77087C1.76447 0.379883 1.75727 0.379883 1.74927 0.379883C0.789811 0.379883 0.011203 1.15129 0 2.10754V22.6506C0.011203 23.6077 0.789811 24.3799 1.74927 24.3799C1.75727 24.3799 1.76447 24.3799 1.77247 24.3799H22.2219C22.2283 24.3799 22.2363 24.3799 22.2443 24.3799C23.2046 24.3799 23.9848 23.6093 24 22.6522V22.6506V2.10914C23.9848 1.15129 23.2046 0.379883 22.2435 0.379883C22.2355 0.379883 22.2283 0.379883 22.2203 0.379883H22.2243ZM7.1179 20.8317H3.55375V9.37988H7.1179V20.8317ZM5.33662 7.81307C4.19632 7.81307 3.27287 6.88882 3.27287 5.74931C3.27287 4.60981 4.19712 3.68556 5.33662 3.68556C6.47613 3.68556 7.40037 4.60901 7.40037 5.74851C7.40037 5.74931 7.40037 5.75011 7.40037 5.75172C7.40037 6.89042 6.47693 7.81387 5.33822 7.81387C5.33742 7.81387 5.33662 7.81387 5.33582 7.81387L5.33662 7.81307ZM20.4463 20.8317H16.8925V15.2631C16.8925 13.9347 16.8653 12.2262 15.0408 12.2262C13.1875 12.2262 12.905 13.6714 12.905 15.1654V20.8325H9.35129V9.38068H12.765V10.9419H12.8114C13.474 9.8256 14.6727 9.08941 16.0435 9.08941C16.0923 9.08941 16.1403 9.09021 16.1883 9.09181H16.1811C19.7821 9.09181 20.4479 11.462 20.4479 14.5469V20.8325L20.4463 20.8317Z" fill="#387CA6"/>
</g>
<defs>
<clipPath id="clip0_912_12087">
<rect width="24" height="24" fill="white" transform="translate(0 0.379883)"/>
</clipPath>
</defs>
</svg>
