<svg width="24" height="24" viewBox="0 0 24 24" fill="none" xmlns="http://www.w3.org/2000/svg">
<path d="M21 11.9696L12.9628 19.5497C11.9782 20.4783 10.6427 21 9.25028 21C7.85782 21 6.52239 20.4783 5.53777 19.5497C4.55315 18.6211 4 17.3616 4 16.0483C4 14.7351 4.55315 13.4756 5.53777 12.547M15.429 7.88674L8.00403 14.8812C7.67583 15.1907 7.49144 15.6106 7.49144 16.0483C7.49144 16.4861 7.67583 16.9059 8.00403 17.2154C8.33224 17.525 8.77738 17.6989 9.24154 17.6989C9.70569 17.6989 10.1508 17.525 10.479 17.2154L14.502 13.4254M9.55638 8.75692L13.575 4.96687C14.2314 4.34779 15.1217 4 16.05 4C16.9783 4 17.8686 4.34779 18.525 4.96687C19.1814 5.58595 19.5502 6.4256 19.5502 7.30111C19.5502 8.17662 19.1814 9.01628 18.525 9.63535L17.5 10.601" stroke="#387CA6" stroke-width="2" stroke-linecap="round" stroke-linejoin="round"/>
</svg>
