<svg width="200" height="199" viewBox="0 0 200 199" fill="none" xmlns="http://www.w3.org/2000/svg">
<g clip-path="url(#clip0_374_5093)">
<mask id="mask0_374_5093" style="mask-type:luminance" maskUnits="userSpaceOnUse" x="0" y="0" width="200" height="199">
<path d="M200 0H0V198.246H200V0Z" fill="white"/>
</mask>
<g mask="url(#mask0_374_5093)">
<path fill-rule="evenodd" clip-rule="evenodd" d="M35.3914 66.7175C43.691 37.874 65.3786 18.5587 94.0281 14.4951C104.4 13.0239 117.961 15.1459 128.786 19.9343C141.632 25.6142 156.83 38.1906 167.486 51.9577C176.144 63.1412 176.196 63.6671 167.874 55.8127C147.023 36.1419 119.575 28.6801 95.286 36.0785C79.8491 40.7812 68.1163 50.3278 62.0272 63.1401C58.8474 69.8322 58.4674 71.5138 58.1438 80.3015C57.8468 88.3789 58.1479 91.1175 59.9063 96.324C64.0468 108.587 71.5456 117.098 82.8912 122.411C87.914 124.763 89.8579 125.117 97.7614 125.117H106.853L103.605 127.843C101.821 129.342 97.5193 131.973 94.0473 133.688C88.1368 136.61 87.086 136.806 77.486 136.777C64.6665 136.739 58.5433 134.573 50.5117 127.24C43.5302 120.864 39.2405 114.18 35.9154 104.49C32.3068 93.9761 32.0886 78.1971 35.3914 66.7175ZM21.6302 58.6196C26.4458 51.3196 40.1963 37.0478 48.2251 31.0163C51.7149 28.3947 54.7175 26.2454 54.8968 26.2406C55.076 26.2347 52.8459 28.9713 49.9417 32.3199C40.2714 43.4712 34.4951 53.5799 30.5766 66.2091C28.7733 72.0243 28.3203 75.7275 28.3154 84.6856C28.3067 102.916 32.9295 115.753 43.6209 127.182C53.1021 137.318 63.6991 142.166 76.3737 142.166C94.0561 142.166 109.256 133.026 116.693 117.92C119.565 112.087 119.846 110.709 119.846 102.406V93.294L122.633 96.5403C124.167 98.3261 126.796 102.636 128.479 106.119C131.309 111.982 131.535 113.21 131.535 122.681C131.535 132.127 131.302 133.405 128.479 139.363C121.295 154.526 107.37 163.716 87.3351 166.518C72.9291 168.533 55.2475 164.274 40.9017 155.332C21.3135 143.123 9.12964 121.56 8.96683 98.8122C8.86367 84.2803 12.6661 72.2094 21.6302 58.6196ZM65.483 65.9226C72.3153 51.4998 86.393 41.7194 104.304 38.9535C116.488 37.0722 131.761 39.6501 144.277 45.7012C159.088 52.8619 170.072 63.2901 176.619 76.4045C188.172 99.5457 186.846 123.132 172.774 144.803C166.695 154.165 151.686 169.135 141.279 176.216L133.484 181.517L141.765 172.736C162.63 150.61 169.853 122.84 161.249 97.8312C151.274 68.8413 122.347 55.4338 96.3298 67.7415C81.8158 74.608 71.0312 92.3013 73.0714 105.904L73.7596 110.49L71.6761 108.606C70.5305 107.57 67.9672 103.43 65.9788 99.4075C62.5338 92.4368 62.3644 91.6349 62.3644 82.3006C62.3644 73.3034 62.6177 71.9726 65.483 65.9226ZM91.8491 76.6608C94.5105 73.814 101.675 70.105 107.667 68.4742C113.291 66.9436 119.86 66.8628 126.374 68.2442C142.228 71.6084 155.063 85.2147 159.767 103.645C161.879 111.912 161.682 126.529 159.335 135.701C154.321 155.305 139.698 174.047 123.254 181.944C113.381 186.686 105.867 188.784 95.9333 189.575C82.7246 190.63 66.0986 185.774 53.4256 177.161C46.3282 172.339 33.0882 159.192 26.6289 150.553C18.3537 139.487 18.08 138.383 25.3946 145.591C33.061 153.145 40.8988 158.634 50.4874 163.161C60.8981 168.078 68.5907 169.781 80.3877 169.781C98.5368 169.781 111.546 164.78 122.846 153.46C130.802 145.488 134.354 138.833 136.107 128.611C139.13 110.98 129.482 90.3878 114.654 82.8227C108.221 79.5406 99.2684 77.5901 94.1368 78.3529L89.6438 79.0213L91.8491 76.6608ZM-64.5614 303.753L-64.4737 300.025H-97.2368V274.147H-70.0439V270.507H-97.2368V245.419H-64.5614V241.691H-101.754V303.753H-64.5614ZM-48.8384 303.753V239.937H-53.049V303.753H-48.8384ZM-29.4346 303.753V260.112H-33.6012V303.753H-29.4346ZM-27.9872 246.56C-27.7533 246.093 -27.6363 245.595 -27.6363 245.068C-27.6363 244.542 -27.7533 244.046 -27.9872 243.577C-28.1919 243.081 -28.4697 242.656 -28.8205 242.305C-29.1714 241.954 -29.5809 241.677 -30.0486 241.472C-30.5165 241.268 -31.0135 241.165 -31.5398 241.165C-32.0661 241.165 -32.5633 241.268 -33.0311 241.472C-33.499 241.677 -33.9083 241.954 -34.2591 242.305C-34.61 242.656 -34.8879 243.081 -35.0925 243.577C-35.2972 244.046 -35.3995 244.542 -35.3995 245.068C-35.3995 245.595 -35.2972 246.093 -35.0925 246.56C-34.8879 246.998 -34.61 247.393 -34.2591 247.744C-33.9083 248.095 -33.499 248.374 -33.0311 248.577C-32.5633 248.782 -32.0661 248.884 -31.5398 248.884C-31.0135 248.884 -30.5165 248.782 -30.0486 248.577C-29.5809 248.374 -29.1714 248.095 -28.8205 247.744C-28.4697 247.393 -28.1919 246.998 -27.9872 246.56ZM-9.55247 301.998C-7.8858 303.637 -5.57597 304.454 -2.62264 304.454C-0.780535 304.454 0.988418 304.089 2.68438 303.358C4.40947 302.598 5.82754 301.603 6.93876 300.375L5.79841 298.533C5.56438 298.242 5.33052 298.095 5.09666 298.095C4.89192 298.095 4.6142 298.256 4.26332 298.577C3.91245 298.87 3.45912 299.207 2.90368 299.586C2.34806 299.937 1.69017 300.274 0.929994 300.595C0.169642 300.888 -0.73668 301.033 -1.78931 301.033C-2.63738 301.033 -3.42685 300.902 -4.15773 300.639C-4.88878 300.375 -5.53211 299.967 -6.08755 299.41C-6.61387 298.856 -7.03791 298.154 -7.35948 297.305C-7.65194 296.428 -7.79808 295.391 -7.79808 294.191V264.586H5.97385V261.472H-7.79808V244.805H-9.77176C-10.0935 244.805 -10.3419 244.909 -10.5174 245.112C-10.6928 245.317 -10.8098 245.551 -10.8683 245.814L-11.9209 261.428L-19.377 261.954V263.577C-19.377 263.9 -19.2747 264.147 -19.07 264.323C-18.8654 264.498 -18.6023 264.586 -18.2805 264.586H-12.0086V294.41C-12.0086 297.832 -11.19 300.361 -9.55247 301.998ZM44.9493 271.253C45.6217 273.095 45.9581 275.186 45.9581 277.524H17.0546C17.3177 275.244 17.844 273.182 18.6335 271.34C19.423 269.498 20.461 267.919 21.7475 266.603C23.0633 265.288 24.613 264.279 26.3967 263.577C28.1803 262.875 30.1979 262.525 32.4493 262.525C34.4375 262.525 36.2505 262.875 37.8879 263.577C39.5546 264.251 40.9874 265.23 42.1861 266.516C43.3849 267.803 44.306 269.382 44.9493 271.253ZM16.8353 281.033V280.2H48.5896C48.9989 280.2 49.2914 280.084 49.4668 279.849C49.6423 279.616 49.73 279.177 49.73 278.533C49.73 275.463 49.2768 272.744 48.3703 270.375C47.4931 268.007 46.2796 266.019 44.73 264.41C43.1803 262.774 41.3528 261.532 39.2475 260.682C37.1423 259.835 34.8616 259.41 32.4054 259.41C29.306 259.41 26.5282 259.953 24.0721 261.033C21.6453 262.116 19.5838 263.621 17.8879 265.551C16.2212 267.453 14.9347 269.733 14.0282 272.393C13.151 275.025 12.7124 277.905 12.7124 281.033C12.7124 284.747 13.1803 288.051 14.1159 290.946C15.0809 293.812 16.4405 296.239 18.1949 298.226C19.9493 300.216 22.0546 301.735 24.5107 302.788C26.9668 303.812 29.6861 304.323 32.6686 304.323C34.306 304.323 35.9288 304.163 37.537 303.84C39.1744 303.519 40.6949 303.095 42.0984 302.568C43.5312 302.014 44.8177 301.356 45.9581 300.595C47.1277 299.835 48.0633 299.016 48.7651 298.139L47.6247 296.735C47.42 296.444 47.1277 296.296 46.7475 296.296C46.4551 296.296 45.9874 296.546 45.344 297.042C44.7007 297.51 43.8235 298.051 42.7124 298.665C41.6305 299.251 40.2856 299.791 38.6774 300.288C37.0691 300.756 35.1686 300.989 32.9756 300.989C30.5195 300.989 28.2972 300.567 26.3089 299.717C24.3207 298.87 22.6247 297.612 21.2212 295.946C19.8177 294.251 18.7358 292.16 17.9756 289.674C17.2154 287.189 16.8353 284.309 16.8353 281.033ZM111.872 303.753L137.486 240.332H127.968C126.974 240.332 126.126 240.61 125.425 241.165C124.751 241.721 124.298 242.335 124.065 243.007L109.196 281.691C108.698 282.949 108.246 284.339 107.837 285.858C107.426 287.349 107.047 288.914 106.696 290.551C106.286 288.914 105.847 287.349 105.381 285.858C104.942 284.339 104.474 282.949 103.977 281.691L89.021 243.007C88.6982 242.218 88.2158 241.575 87.5737 241.077C86.9298 240.581 86.0965 240.332 85.0737 240.332H75.6L101.214 303.753H111.872ZM151.535 285.375C153.67 284.967 156.302 284.689 159.43 284.542V292.13C157.881 293.768 156.286 294.996 154.649 295.814C153.04 296.603 151.126 296.998 148.903 296.998C147.091 296.998 145.614 296.589 144.474 295.77C143.363 294.953 142.807 293.593 142.807 291.691C142.807 290.726 143.084 289.835 143.64 289.016C144.196 288.198 145.118 287.481 146.403 286.867C147.689 286.253 149.4 285.756 151.535 285.375ZM153.289 257.919C146.009 257.919 139.781 260.288 134.605 265.024L136.535 268.489C136.856 269.016 137.281 269.484 137.807 269.893C138.333 270.274 138.977 270.463 139.737 270.463C140.614 270.463 141.403 270.26 142.105 269.849C142.837 269.44 143.64 268.988 144.518 268.489C145.395 267.963 146.404 267.496 147.544 267.086C148.714 266.677 150.175 266.472 151.93 266.472C154.356 266.472 156.214 267.203 157.5 268.665C158.786 270.098 159.43 272.321 159.43 275.332V277.963C156.009 278.051 152.968 278.314 150.307 278.753C147.646 279.163 145.307 279.703 143.289 280.375C141.302 281.049 139.619 281.839 138.246 282.744C136.872 283.651 135.746 284.616 134.868 285.639C134.021 286.663 133.407 287.744 133.026 288.884C132.646 289.996 132.456 291.121 132.456 292.261C132.456 294.279 132.777 296.049 133.421 297.568C134.065 299.089 134.97 300.361 136.14 301.384C137.311 302.409 138.698 303.182 140.307 303.709C141.916 304.207 143.67 304.454 145.57 304.454C147.179 304.454 148.64 304.309 149.956 304.016C151.302 303.753 152.558 303.358 153.728 302.832C154.898 302.305 156.023 301.663 157.105 300.902C158.188 300.112 159.298 299.207 160.439 298.182L161.403 301.428C161.725 302.365 162.163 302.993 162.719 303.314C163.275 303.607 164.065 303.753 165.088 303.753H170V275.332C170 272.788 169.619 270.449 168.86 268.314C168.128 266.181 167.047 264.353 165.614 262.832C164.181 261.282 162.426 260.084 160.351 259.235C158.275 258.358 155.921 257.919 153.289 257.919ZM200.16 279.63C199.165 279.981 197.995 280.156 196.651 280.156C195.335 280.156 194.165 279.981 193.142 279.63C192.147 279.251 191.314 278.739 190.642 278.095C189.998 277.423 189.502 276.633 189.151 275.726C188.828 274.821 188.668 273.84 188.668 272.788C188.668 270.567 189.326 268.812 190.642 267.525C191.986 266.209 193.989 265.551 196.651 265.551C199.311 265.551 201.3 266.209 202.616 267.525C203.96 268.812 204.633 270.567 204.633 272.788C204.633 273.87 204.458 274.865 204.107 275.77C203.784 276.677 203.288 277.453 202.616 278.095C201.972 278.739 201.153 279.251 200.16 279.63ZM208.098 303.621C208.625 304.177 208.888 304.893 208.888 305.77C208.888 306.647 208.668 307.453 208.23 308.182C207.791 308.944 207.089 309.586 206.125 310.112C205.188 310.668 203.989 311.093 202.528 311.384C201.065 311.707 199.326 311.867 197.309 311.867C195.319 311.867 193.639 311.721 192.265 311.428C190.889 311.165 189.765 310.786 188.888 310.288C188.039 309.791 187.411 309.191 187.002 308.489C186.621 307.817 186.432 307.086 186.432 306.296C186.432 305.098 186.796 304.046 187.528 303.139C188.288 302.233 189.267 301.444 190.467 300.77C191.84 300.946 193.244 301.063 194.677 301.121C196.139 301.181 197.542 301.253 198.888 301.34C200.261 301.4 201.547 301.502 202.747 301.647C203.975 301.795 205.042 302.028 205.949 302.349C206.854 302.642 207.572 303.067 208.098 303.621ZM219.677 264.323V260.288H206.739C205.335 259.528 203.784 258.958 202.089 258.577C200.393 258.168 198.581 257.963 196.651 257.963C194.077 257.963 191.695 258.3 189.502 258.972C187.337 259.646 185.451 260.625 183.844 261.91C182.265 263.168 181.021 264.703 180.116 266.516C179.239 268.3 178.8 270.303 178.8 272.525C178.8 275.274 179.442 277.672 180.73 279.717C182.046 281.765 183.844 283.402 186.125 284.63C185.13 285.128 184.267 285.698 183.537 286.34C182.805 286.954 182.191 287.612 181.695 288.314C181.226 289.016 180.861 289.733 180.598 290.463C180.363 291.165 180.247 291.853 180.247 292.525C180.247 294.191 180.598 295.537 181.3 296.56C182.002 297.584 182.951 298.402 184.151 299.016C181.928 299.865 180.174 301.005 178.888 302.437C177.63 303.84 177.002 305.595 177.002 307.7C177.002 309.251 177.411 310.742 178.23 312.174C179.047 313.607 180.291 314.865 181.958 315.946C183.625 317.058 185.714 317.935 188.23 318.577C190.744 319.251 193.696 319.586 197.089 319.586C200.539 319.586 203.609 319.133 206.3 318.226C209.019 317.349 211.3 316.181 213.142 314.718C215.012 313.256 216.432 311.589 217.396 309.717C218.389 307.847 218.888 305.917 218.888 303.928C218.888 301.795 218.463 300.054 217.616 298.709C216.796 297.335 215.7 296.253 214.326 295.463C212.951 294.674 211.388 294.103 209.633 293.753C207.879 293.374 206.081 293.11 204.239 292.963C202.396 292.817 200.598 292.73 198.844 292.7C197.089 292.642 195.525 292.525 194.151 292.349C192.775 292.174 191.665 291.882 190.818 291.472C189.998 291.033 189.589 290.361 189.589 289.454C189.589 288.402 190.291 287.453 191.695 286.603C192.484 286.751 193.288 286.867 194.107 286.954C194.925 287.042 195.774 287.086 196.651 287.086C199.135 287.086 201.446 286.751 203.581 286.077C205.744 285.375 207.616 284.396 209.195 283.139C210.774 281.882 212.002 280.361 212.879 278.577C213.784 276.765 214.239 274.747 214.239 272.525C214.239 270.682 213.932 268.988 213.318 267.437L217.353 266.691C218.902 266.4 219.677 265.61 219.677 264.323ZM242.425 285.375C244.558 284.967 247.189 284.689 250.319 284.542V292.13C248.768 293.768 247.175 294.996 245.539 295.814C243.93 296.603 242.014 296.998 239.793 296.998C237.979 296.998 236.503 296.589 235.363 295.77C234.251 294.953 233.696 293.593 233.696 291.691C233.696 290.726 233.974 289.835 234.53 289.016C235.084 288.198 236.005 287.481 237.293 286.867C238.579 286.253 240.289 285.756 242.425 285.375ZM244.179 257.919C236.898 257.919 230.67 260.288 225.495 265.024L227.425 268.489C227.746 269.016 228.17 269.484 228.696 269.893C229.223 270.274 229.865 270.463 230.626 270.463C231.503 270.463 232.293 270.26 232.995 269.849C233.725 269.44 234.53 268.988 235.407 268.489C236.284 267.963 237.293 267.496 238.433 267.086C239.602 266.677 241.065 266.472 242.819 266.472C245.246 266.472 247.102 267.203 248.389 268.665C249.675 270.098 250.319 272.321 250.319 275.332V277.963C246.898 278.051 243.856 278.314 241.196 278.753C238.535 279.163 236.196 279.703 234.179 280.375C232.189 281.049 230.509 281.839 229.135 282.744C227.76 283.651 226.635 284.616 225.758 285.639C224.909 286.663 224.295 287.744 223.916 288.884C223.535 289.996 223.346 291.121 223.346 292.261C223.346 294.279 223.667 296.049 224.311 297.568C224.953 299.089 225.86 300.361 227.03 301.384C228.198 302.409 229.588 303.182 231.196 303.709C232.803 304.207 234.558 304.454 236.46 304.454C238.067 304.454 239.53 304.309 240.846 304.016C242.189 303.753 243.447 303.358 244.618 302.832C245.786 302.305 246.912 301.663 247.995 300.902C249.075 300.112 250.188 299.207 251.328 298.182L252.293 301.428C252.614 302.365 253.053 302.993 253.609 303.314C254.163 303.607 254.953 303.753 255.977 303.753H260.889V275.332C260.889 272.788 260.509 270.449 259.749 268.314C259.018 266.181 257.935 264.353 256.503 262.832C255.07 261.282 253.316 260.084 251.24 259.235C249.163 258.358 246.811 257.919 244.179 257.919ZM297.626 268.533C297.949 268.33 298.256 267.993 298.547 267.525L301.004 263.621C299.309 261.954 297.188 260.61 294.644 259.586C292.1 258.563 289.279 258.051 286.179 258.051C283.402 258.051 280.946 258.432 278.811 259.191C276.705 259.923 274.937 260.917 273.504 262.174C272.1 263.402 271.033 264.849 270.302 266.516C269.572 268.182 269.205 269.937 269.205 271.779C269.205 273.768 269.512 275.463 270.126 276.867C270.77 278.27 271.604 279.454 272.626 280.419C273.679 281.384 274.863 282.189 276.179 282.832C277.525 283.446 278.884 283.988 280.258 284.454C281.661 284.923 283.021 285.361 284.337 285.77C285.682 286.151 286.867 286.589 287.889 287.086C288.942 287.584 289.775 288.168 290.389 288.84C291.033 289.514 291.354 290.375 291.354 291.428C291.354 292.13 291.209 292.817 290.916 293.489C290.653 294.133 290.214 294.703 289.6 295.2C289.016 295.698 288.256 296.107 287.319 296.428C286.414 296.721 285.318 296.867 284.03 296.867C282.393 296.867 281.033 296.677 279.951 296.296C278.898 295.918 277.977 295.507 277.188 295.068C276.398 294.63 275.696 294.221 275.082 293.84C274.498 293.461 273.87 293.27 273.196 293.27C272.525 293.27 271.968 293.402 271.53 293.665C271.091 293.928 270.712 294.309 270.389 294.805L267.889 298.928C268.767 299.718 269.775 300.449 270.916 301.121C272.086 301.795 273.344 302.379 274.688 302.875C276.063 303.374 277.481 303.753 278.942 304.016C280.433 304.309 281.954 304.454 283.503 304.454C286.428 304.454 289.002 304.089 291.223 303.358C293.475 302.598 295.361 301.56 296.881 300.244C298.402 298.9 299.542 297.321 300.302 295.507C301.091 293.665 301.486 291.663 301.486 289.498C301.486 287.686 301.165 286.137 300.521 284.849C299.907 283.563 299.074 282.467 298.021 281.56C296.998 280.625 295.828 279.865 294.512 279.279C293.196 278.665 291.853 278.125 290.477 277.656C289.133 277.189 287.802 276.765 286.486 276.384C285.17 275.975 283.986 275.523 282.933 275.025C281.911 274.528 281.077 273.958 280.433 273.314C279.819 272.642 279.512 271.823 279.512 270.858C279.512 269.396 280.112 268.212 281.311 267.305C282.539 266.4 284.221 265.946 286.354 265.946C287.73 265.946 288.914 266.093 289.907 266.384C290.932 266.677 291.837 267.014 292.626 267.393C293.416 267.744 294.103 268.067 294.688 268.358C295.302 268.651 295.872 268.796 296.398 268.796C296.896 268.796 297.305 268.709 297.626 268.533Z" fill="#387CA6"/>
</g>
</g>
<defs>
<clipPath id="clip0_374_5093">
<rect width="200" height="198.246" fill="white"/>
</clipPath>
</defs>
</svg>
