<svg width="250" height="56" viewBox="0 0 250 56" fill="none" xmlns="http://www.w3.org/2000/svg">
<mask id="mask0_457_4867" style="mask-type:luminance" maskUnits="userSpaceOnUse" x="0" y="0" width="56" height="55">
<path d="M55.3797 0H0V54.894H55.3797V0Z" fill="white"/>
</mask>
<g mask="url(#mask0_457_4867)">
<mask id="mask1_457_4867" style="mask-type:luminance" maskUnits="userSpaceOnUse" x="0" y="0" width="56" height="55">
<path d="M55.3797 0H0V54.894H55.3797V0Z" fill="white"/>
</mask>
<g mask="url(#mask1_457_4867)">
<path fill-rule="evenodd" clip-rule="evenodd" d="M9.79985 18.474C12.098 10.4872 18.1033 5.13889 26.0362 4.01367C28.9082 3.60632 32.6634 4.19388 35.6607 5.5198C39.2176 7.09253 43.426 10.575 46.3767 14.387C48.774 17.4837 48.7886 17.6293 46.484 15.4545C40.7104 10.0077 33.1103 7.94152 26.3846 9.9901C22.1101 11.2922 18.8613 13.9357 17.1752 17.4835C16.2948 19.3365 16.1896 19.8021 16.0999 22.2354C16.0177 24.472 16.1011 25.2303 16.588 26.672C17.7345 30.0676 19.8109 32.4243 22.9525 33.8956C24.3433 34.5467 24.8816 34.6447 27.07 34.6447H29.5873L28.6881 35.3995C28.1941 35.8146 27.0029 36.543 26.0416 37.0181C24.405 37.8271 24.114 37.8814 21.4558 37.8732C17.9061 37.8627 16.2106 37.2631 13.9866 35.2326C12.0535 33.4672 10.8657 31.6163 9.94494 28.9332C8.94573 26.0219 8.88529 21.6527 9.79985 18.474ZM5.98936 16.2317C7.3228 14.2103 11.1303 10.2585 13.3535 8.58836C14.3198 7.86246 15.1512 7.26732 15.2009 7.26601C15.2505 7.26436 14.633 8.02214 13.8288 8.94935C11.1511 12.0371 9.55167 14.8362 8.46662 18.3332C7.96733 19.9434 7.84186 20.9689 7.8405 23.4494C7.83807 28.4972 9.11812 32.052 12.0786 35.2166C14.7039 38.0233 17.6382 39.3657 21.1478 39.3657C26.044 39.3657 30.2529 36.8346 32.3121 32.652C33.1074 31.0369 33.1851 30.6551 33.1851 28.3562V25.833L33.957 26.7319C34.3816 27.2264 35.1098 28.4198 35.5756 29.3842C36.3593 31.0077 36.4219 31.3476 36.4219 33.9702C36.4219 36.5859 36.3573 36.9396 35.5756 38.5895C33.5863 42.7882 29.7306 45.3329 24.183 46.1088C20.194 46.6666 15.2979 45.4872 11.3256 43.0112C5.90167 39.6306 2.52799 33.6597 2.4829 27.361C2.45434 23.3371 3.50723 19.9947 5.98936 16.2317ZM18.1321 18.2539C20.024 14.2602 23.9221 11.552 28.8815 10.7861C32.2553 10.2653 36.4846 10.9791 39.9502 12.6546C44.0512 14.6374 47.0927 17.525 48.9056 21.1563C52.1046 27.5641 51.7373 34.0952 47.8408 40.0959C46.1575 42.688 42.0017 46.8334 39.1199 48.7939L36.9616 50.2619L39.2545 47.8304C45.032 41.7037 47.032 34.0142 44.6497 27.0893C41.8875 19.0621 33.8779 15.3496 26.6736 18.7576C22.6547 20.6588 19.6684 25.5581 20.2334 29.3246L20.424 30.5947L19.847 30.0729C19.5298 29.7859 18.82 28.6397 18.2695 27.5258C17.3155 25.5956 17.2686 25.3736 17.2686 22.789C17.2686 20.2976 17.3388 19.9291 18.1321 18.2539ZM25.4329 21.2273C26.1699 20.439 28.1538 19.412 29.8127 18.9604C31.3702 18.5366 33.189 18.5142 34.9927 18.8967C39.3828 19.8283 42.9368 23.5959 44.2392 28.699C44.8241 30.9883 44.7696 35.0356 44.1197 37.5755C42.7313 43.0037 38.6823 48.1935 34.129 50.38C31.3949 51.6931 29.3143 52.2741 26.5638 52.4932C22.9063 52.7851 18.3026 51.4405 14.7935 49.0558C12.8282 47.7203 9.16211 44.08 7.37352 41.688C5.08211 38.6238 5.00633 38.3181 7.03172 40.3139C9.15459 42.4056 11.3248 43.9255 13.9799 45.1791C16.8626 46.5406 18.9926 47.0122 22.2593 47.0122C27.2847 47.0122 30.8869 45.6274 34.0158 42.4928C36.2188 40.2856 37.2025 38.4428 37.6878 35.6123C38.5248 30.7301 35.8535 25.0283 31.7476 22.9335C29.9663 22.0247 27.4873 21.4846 26.0664 21.6959L24.8222 21.8809L25.4329 21.2273ZM-17.877 84.1084L-17.8527 83.0767H-26.9248V75.9111H-19.3951V74.9031H-26.9248V67.9563H-17.877V66.924H-28.1756V84.1084H-17.877ZM-13.5233 84.1084V66.4382H-14.6892V84.1084H-13.5233ZM-8.15039 84.1084V72.0247H-9.30411V84.1084H-8.15039ZM-7.74963 68.2721C-7.68487 68.1429 -7.65247 68.0049 -7.65247 67.8592C-7.65247 67.7134 -7.68487 67.5759 -7.74963 67.4462C-7.80631 67.3088 -7.88322 67.1912 -7.98038 67.0941C-8.07753 66.9968 -8.1909 66.9201 -8.32041 66.8633C-8.45 66.8069 -8.58758 66.7782 -8.7333 66.7782C-8.87911 66.7782 -9.01677 66.8069 -9.14628 66.8633C-9.27579 66.9201 -9.38916 66.9968 -9.48631 67.0941C-9.58346 67.1912 -9.66044 67.3088 -9.71709 67.4462C-9.77373 67.5759 -9.80205 67.7134 -9.80205 67.8592C-9.80205 68.0049 -9.77373 68.1429 -9.71709 68.2721C-9.66044 68.3935 -9.58346 68.5028 -9.48631 68.6C-9.38916 68.6971 -9.27579 68.7744 -9.14628 68.8307C-9.01677 68.8876 -8.87911 68.9157 -8.7333 68.9157C-8.58758 68.9157 -8.45 68.8876 -8.32041 68.8307C-8.1909 68.7744 -8.07753 68.6971 -7.98038 68.6C-7.88322 68.5028 -7.80631 68.3935 -7.74963 68.2721ZM-2.64507 83.6226C-2.18357 84.0767 -1.54398 84.303 -0.726208 84.303C-0.216131 84.303 0.27369 84.2017 0.743299 83.9992C1.22098 83.7888 1.61363 83.5134 1.92133 83.1732L1.60557 82.6638C1.54076 82.5831 1.47602 82.5419 1.41125 82.5419C1.35457 82.5419 1.27766 82.587 1.18051 82.6756C1.08335 82.7571 0.957821 82.8497 0.804023 82.9549C0.650174 83.0522 0.468005 83.1456 0.257513 83.2342C0.046973 83.3156 -0.203989 83.356 -0.495461 83.356C-0.730291 83.356 -0.948891 83.3196 -1.15127 83.2468C-1.3537 83.1732 -1.53184 83.0601 -1.68564 82.9066C-1.83137 82.7531 -1.94879 82.5585 -2.03784 82.3236C-2.11882 82.0807 -2.15928 81.7935 -2.15928 81.4612V73.2635H1.65415V72.4012H-2.15928V67.7863H-2.70579C-2.79489 67.7863 -2.86368 67.8149 -2.91225 67.8713C-2.96083 67.9281 -2.99323 67.9927 -3.00941 68.0656L-3.30088 72.3891L-5.36548 72.5348V72.9842C-5.36548 73.0736 -5.33716 73.1421 -5.28046 73.1906C-5.22382 73.2392 -5.15095 73.2635 -5.06186 73.2635H-3.32517V81.5221C-3.32517 82.4691 -3.0985 83.1701 -2.64507 83.6226ZM12.4464 75.1095C12.6326 75.6196 12.7257 76.1986 12.7257 76.8462H4.72238C4.79525 76.2147 4.94098 75.6439 5.15959 75.1338C5.37819 74.6237 5.66564 74.1865 6.02186 73.8221C6.38621 73.4578 6.8153 73.1785 7.3092 72.9842C7.8031 72.7899 8.36179 72.6927 8.98513 72.6927C9.53568 72.6927 10.0377 72.7899 10.4911 72.9842C10.9526 73.1707 11.3494 73.4418 11.6813 73.7979C12.0132 74.1544 12.2683 74.5917 12.4464 75.1095ZM4.66166 77.8178V77.587H13.4544C13.5677 77.587 13.6487 77.555 13.6973 77.4899C13.7459 77.4252 13.7702 77.3038 13.7702 77.1255C13.7702 76.2754 13.6447 75.5225 13.3937 74.8666C13.1508 74.2108 12.8148 73.6604 12.3857 73.2149C11.9566 72.7617 11.4506 72.4178 10.8676 72.1827C10.2847 71.948 9.65309 71.8304 8.97303 71.8304C8.1148 71.8304 7.34564 71.9805 6.66553 72.2798C5.99354 72.5795 5.42274 72.9963 4.95313 73.5307C4.49163 74.0573 4.13541 74.6888 3.8844 75.4253C3.64151 76.1539 3.52006 76.9516 3.52006 77.8178C3.52006 78.8462 3.64961 79.7611 3.90869 80.5625C4.17586 81.356 4.55235 82.0285 5.03814 82.5783C5.52393 83.1297 6.10688 83.5498 6.78698 83.8418C7.46708 84.125 8.22002 84.2666 9.04589 84.2666C9.49929 84.2666 9.94866 84.2223 10.3939 84.1329C10.8473 84.0443 11.2684 83.9264 11.657 83.7808C12.0537 83.6274 12.41 83.4454 12.7257 83.2342C13.0496 83.0237 13.3087 82.7975 13.503 82.5546L13.1872 82.1653C13.1305 82.0846 13.0496 82.0443 12.9443 82.0443C12.8634 82.0443 12.7339 82.1131 12.5557 82.2508C12.3775 82.3805 12.1347 82.53 11.827 82.7001C11.5275 82.8623 11.1551 83.0119 10.7097 83.1495C10.2644 83.2793 9.73814 83.3433 9.13094 83.3433C8.45079 83.3433 7.83546 83.2263 7.28491 82.9913C6.73437 82.7571 6.26476 82.4082 5.87613 81.947C5.4875 81.4778 5.18791 80.8987 4.97742 80.2104C4.76692 79.5221 4.66166 78.7247 4.66166 77.8178ZM30.9772 84.1084L38.0697 66.5475H35.4343C35.1589 66.5475 34.9242 66.6247 34.7299 66.7782C34.5434 66.9323 34.418 67.1023 34.3534 67.2884L30.2364 77.9999C30.0984 78.3482 29.9731 78.733 29.8599 79.1535C29.7462 79.5664 29.6413 80 29.5441 80.4533C29.4305 80 29.309 79.5664 29.1798 79.1535C29.0583 78.733 28.9286 78.3482 28.7911 77.9999L24.6498 67.2884C24.5604 67.0698 24.4268 66.8919 24.2491 66.7539C24.0707 66.6165 23.84 66.5475 23.5568 66.5475H20.9335L28.026 84.1084H30.9772ZM41.9599 79.0201C42.551 78.9069 43.2798 78.8301 44.1459 78.7893V80.89C43.7169 81.3441 43.2754 81.6843 42.8222 81.9106C42.3767 82.1289 41.8467 82.2381 41.2312 82.2381C40.7294 82.2381 40.3203 82.125 40.0046 81.8987C39.6971 81.6717 39.543 81.2959 39.543 80.769C39.543 80.5016 39.6199 80.2547 39.7738 80.0285C39.9279 79.8014 40.1828 79.6028 40.5389 79.4327C40.895 79.2626 41.3687 79.1258 41.9599 79.0201ZM42.4457 71.4175C40.4297 71.4175 38.7051 72.0733 37.272 73.385L37.8064 74.3444C37.8953 74.4901 38.0128 74.6198 38.1585 74.7331C38.3044 74.8384 38.4826 74.8909 38.693 74.8909C38.9358 74.8909 39.1544 74.8346 39.3487 74.7209C39.5513 74.6077 39.7738 74.4823 40.0167 74.3444C40.2596 74.1986 40.5389 74.0694 40.8547 73.9558C41.1787 73.8425 41.5834 73.7857 42.0691 73.7857C42.741 73.7857 43.2555 73.9883 43.6116 74.3929C43.9676 74.7899 44.1459 75.4054 44.1459 76.239V76.9676C43.1987 76.9919 42.3567 77.0648 41.6198 77.1862C40.8829 77.2999 40.2353 77.4495 39.6767 77.6356C39.1263 77.8221 38.6604 78.0407 38.2801 78.2914C37.8997 78.5426 37.5878 78.8097 37.3449 79.0929C37.1103 79.3766 36.9402 79.6756 36.8348 79.9913C36.7294 80.2998 36.6769 80.6107 36.6769 80.9272C36.6769 81.4857 36.7658 81.9755 36.9442 82.3963C37.1224 82.8172 37.3731 83.1701 37.6971 83.4525C38.0211 83.7365 38.4054 83.9509 38.8508 84.0965C39.2963 84.2342 39.7821 84.303 40.3082 84.303C40.7536 84.303 41.1583 84.2626 41.5226 84.1819C41.8953 84.1084 42.2431 83.9992 42.5671 83.8536C42.8911 83.7081 43.2025 83.53 43.5022 83.3196C43.802 83.1005 44.1095 82.8497 44.4252 82.5664L44.6924 83.4652C44.7813 83.7247 44.9028 83.8987 45.0567 83.9873C45.2108 84.068 45.4294 84.1084 45.7126 84.1084H47.0728V76.239C47.0728 75.5346 46.9673 74.887 46.757 74.2958C46.5544 73.7051 46.2552 73.1989 45.8583 72.7778C45.4614 72.3488 44.9756 72.017 44.401 71.7819C43.8263 71.539 43.1744 71.4175 42.4457 71.4175ZM55.424 77.4292C55.1485 77.5263 54.8244 77.5749 54.4524 77.5749C54.0881 77.5749 53.764 77.5263 53.4808 77.4292C53.2054 77.3242 52.9746 77.1823 52.7885 77.0041C52.6103 76.818 52.4728 76.5994 52.3756 76.3482C52.2862 76.0976 52.242 75.826 52.242 75.5346C52.242 74.9195 52.4242 74.4338 52.7885 74.0772C53.1607 73.7129 53.7154 73.5307 54.4524 73.5307C55.1888 73.5307 55.7397 73.7129 56.104 74.0772C56.4762 74.4338 56.6627 74.9195 56.6627 75.5346C56.6627 75.8343 56.6142 76.1097 56.5169 76.3604C56.4276 76.6115 56.2901 76.8262 56.104 77.0041C55.9258 77.1823 55.6989 77.3242 55.424 77.4292ZM57.6222 84.072C57.7679 84.2262 57.8407 84.4248 57.8407 84.6677C57.8407 84.9106 57.78 85.1329 57.6585 85.3354C57.5371 85.5459 57.3428 85.7239 57.0756 85.8694C56.8162 86.0237 56.4844 86.1416 56.0798 86.2215C55.6746 86.3109 55.1932 86.3552 54.6346 86.3552C54.0836 86.3552 53.6183 86.3149 53.2379 86.2342C52.857 86.1614 52.5457 86.0562 52.3028 85.9185C52.0676 85.7808 51.8938 85.6147 51.7805 85.4201C51.6752 85.2342 51.6226 85.0316 51.6226 84.8133C51.6226 84.481 51.7237 84.1899 51.9263 83.9391C52.1366 83.6883 52.4077 83.4691 52.74 83.2832C53.1203 83.3315 53.5089 83.3639 53.9059 83.3797C54.3105 83.3963 54.6991 83.4161 55.0718 83.4407C55.4521 83.4573 55.8082 83.4857 56.1405 83.5261C56.4805 83.5664 56.7759 83.6313 57.0271 83.7199C57.2777 83.8014 57.4764 83.9185 57.6222 84.072ZM60.8283 73.1906V72.0733H57.2457C56.857 71.863 56.4276 71.7051 55.9583 71.5997C55.4885 71.4865 54.9867 71.4297 54.4524 71.4297C53.7397 71.4297 53.08 71.5229 52.4728 71.709C51.8733 71.8956 51.3511 72.1666 50.9061 72.5227C50.4689 72.871 50.1245 73.296 49.8738 73.7979C49.6309 74.2919 49.5095 74.8467 49.5095 75.4617C49.5095 76.2229 49.6873 76.887 50.0438 77.4534C50.4082 78.0203 50.9061 78.4736 51.5377 78.8136C51.2622 78.9516 51.0232 79.1095 50.8211 79.2872C50.6185 79.4573 50.4485 79.6392 50.3111 79.8338C50.1813 80.0285 50.0803 80.227 50.0074 80.4288C49.9423 80.6234 49.9103 80.8133 49.9103 81C49.9103 81.4612 50.0074 81.8338 50.2017 82.1171C50.396 82.4003 50.6589 82.6274 50.9911 82.7975C50.3756 83.0324 49.8899 83.3481 49.5338 83.7444C49.1854 84.1329 49.0116 84.6187 49.0116 85.2017C49.0116 85.6313 49.1248 86.0443 49.3516 86.4407C49.578 86.837 49.9224 87.1859 50.3839 87.485C50.8454 87.7927 51.424 88.0356 52.1206 88.2136C52.8167 88.4003 53.6343 88.4929 54.5738 88.4929C55.5289 88.4929 56.379 88.3679 57.1242 88.1163C57.8771 87.8734 58.5087 87.5498 59.0188 87.1448C59.5366 86.7405 59.9296 86.2785 60.1968 85.7603C60.4718 85.2429 60.6097 84.7081 60.6097 84.1574C60.6097 83.5664 60.4922 83.0846 60.2575 82.712C60.0307 82.3315 59.7271 82.0316 59.3467 81.8133C58.9658 81.5949 58.533 81.4367 58.0472 81.3394C57.5614 81.235 57.0635 81.1622 56.5534 81.121C56.0434 81.0807 55.5454 81.0562 55.0596 81.0482C54.5738 81.0324 54.1405 81 53.7601 80.9509C53.3793 80.9027 53.0718 80.822 52.8371 80.7081C52.6103 80.587 52.4971 80.4003 52.4971 80.1495C52.4971 79.8584 52.6914 79.5949 53.08 79.36C53.2987 79.4011 53.5211 79.4327 53.7479 79.4573C53.9744 79.4818 54.2095 79.4937 54.4524 79.4937C55.1403 79.4937 55.7801 79.4011 56.3712 79.2144C56.9702 79.0201 57.4885 78.749 57.9257 78.4007C58.363 78.0529 58.703 77.6317 58.9459 77.1376C59.1966 76.6358 59.3224 76.0772 59.3224 75.4617C59.3224 74.9516 59.2373 74.4823 59.0673 74.0529L60.1847 73.8464C60.6136 73.7658 60.8283 73.5472 60.8283 73.1906ZM67.1271 79.0201C67.7178 78.9069 68.4464 78.8301 69.3131 78.7893V80.89C68.8836 81.3441 68.4426 81.6843 67.9893 81.9106C67.5438 82.1289 67.0134 82.2381 66.3983 82.2381C65.896 82.2381 65.4875 82.125 65.1718 81.8987C64.8638 81.6717 64.7103 81.2959 64.7103 80.769C64.7103 80.5016 64.787 80.2547 64.941 80.0285C65.0945 79.8014 65.3495 79.6028 65.7061 79.4327C66.0622 79.2626 66.5358 79.1258 67.1271 79.0201ZM67.6128 71.4175C65.5968 71.4175 63.8722 72.0733 62.4392 73.385L62.9736 74.3444C63.0625 74.4901 63.18 74.6198 63.3258 74.7331C63.4715 74.8384 63.6493 74.8909 63.8601 74.8909C64.103 74.8909 64.3216 74.8346 64.5159 74.7209C64.718 74.6077 64.941 74.4823 65.1839 74.3444C65.4268 74.1986 65.7061 74.0694 66.0219 73.9558C66.3454 73.8425 66.7506 73.7857 67.2363 73.7857C67.9082 73.7857 68.4222 73.9883 68.7787 74.3929C69.1348 74.7899 69.3131 75.4054 69.3131 76.239V76.9676C68.3658 76.9919 67.5234 77.0648 66.787 77.1862C66.0501 77.2999 65.4025 77.4495 64.8438 77.6356C64.293 77.8221 63.8276 78.0407 63.4472 78.2914C63.0664 78.5426 62.755 78.8097 62.5121 79.0929C62.277 79.3766 62.1069 79.6756 62.002 79.9913C61.8966 80.2998 61.8441 80.6107 61.8441 80.9272C61.8441 81.4857 61.933 81.9755 62.1113 82.3963C62.2891 82.8172 62.5403 83.1701 62.8642 83.4525C63.1878 83.7365 63.5726 83.9509 64.018 84.0965C64.463 84.2342 64.9487 84.303 65.4754 84.303C65.9203 84.303 66.3255 84.2626 66.6899 84.1819C67.0619 84.1084 67.4103 83.9992 67.7343 83.8536C68.0578 83.7081 68.3697 83.53 68.6694 83.3196C68.9687 83.1005 69.2767 82.8497 69.5924 82.5664L69.8596 83.4652C69.9485 83.7247 70.0699 83.8987 70.224 83.9873C70.3775 84.068 70.5961 84.1084 70.8798 84.1084H72.24V76.239C72.24 75.5346 72.1346 74.887 71.9242 74.2958C71.7216 73.7051 71.4219 73.1989 71.0255 72.7778C70.6286 72.3488 70.1428 72.017 69.5681 71.7819C68.993 71.539 68.3415 71.4175 67.6128 71.4175ZM82.4122 74.3566C82.5016 74.3001 82.587 74.2069 82.6677 74.0772L83.3473 72.9963C82.8782 72.5348 82.2911 72.1627 81.5862 71.879C80.8821 71.5958 80.1013 71.4539 79.2429 71.4539C78.4736 71.4539 77.7935 71.5594 77.2023 71.7697C76.6193 71.9723 76.1297 72.2477 75.7328 72.5956C75.3441 72.9356 75.0488 73.3364 74.8462 73.7979C74.6442 74.2594 74.5426 74.7452 74.5426 75.2552C74.5426 75.8062 74.6276 76.2754 74.7976 76.664C74.9759 77.0527 75.2067 77.3805 75.4899 77.6478C75.7813 77.9149 76.1093 78.1379 76.4736 78.3157C76.8462 78.4857 77.2227 78.6358 77.603 78.765C77.9917 78.8948 78.3682 79.0162 78.7325 79.1297C79.1051 79.235 79.4328 79.356 79.716 79.4937C80.0079 79.6313 80.2381 79.7935 80.4082 79.9794C80.587 80.1661 80.6756 80.4043 80.6756 80.6962C80.6756 80.89 80.6353 81.0807 80.5546 81.2666C80.481 81.4454 80.36 81.6028 80.1899 81.7405C80.0285 81.8781 79.818 81.9913 79.5585 82.0807C79.3078 82.1614 79.004 82.2017 78.6475 82.2017C78.1942 82.2017 77.8178 82.1495 77.518 82.0443C77.2266 81.9391 76.9715 81.8251 76.7529 81.7041C76.5343 81.5823 76.34 81.4691 76.1699 81.3639C76.0082 81.2587 75.8343 81.2065 75.6478 81.2065C75.4617 81.2065 75.3077 81.2429 75.1862 81.3156C75.0648 81.3884 74.9599 81.4937 74.8705 81.6313L74.1783 82.7729C74.4211 82.9913 74.7005 83.1938 75.0162 83.3797C75.3403 83.5664 75.6885 83.7286 76.0607 83.8655C76.4415 84.0039 76.834 84.1084 77.2387 84.1819C77.6517 84.2626 78.0728 84.303 78.5017 84.303C79.3117 84.303 80.0245 84.2017 80.6392 83.9992C81.2627 83.7888 81.7848 83.5016 82.2057 83.1369C82.6274 82.765 82.943 82.3275 83.1535 81.8251C83.3718 81.3157 83.481 80.7611 83.481 80.1614C83.481 79.6598 83.3924 79.231 83.2136 78.8743C83.0435 78.5183 82.8133 78.2146 82.5214 77.9635C82.2381 77.7046 81.9146 77.4942 81.5498 77.3319C81.1859 77.1619 80.8133 77.0123 80.4328 76.8827C80.0609 76.7534 79.6923 76.6358 79.3275 76.5304C78.9632 76.4172 78.6354 76.2919 78.3439 76.1539C78.0607 76.0164 77.8299 75.8586 77.6517 75.6803C77.4816 75.4942 77.3966 75.2674 77.3966 75.0002C77.3966 74.5956 77.5627 74.2676 77.8945 74.0165C78.2346 73.7658 78.7005 73.64 79.2911 73.64C79.6717 73.64 80 73.6808 80.2745 73.7615C80.5585 73.8425 80.8093 73.9358 81.0277 74.0408C81.2468 74.138 81.4367 74.2273 81.5989 74.308C81.769 74.3891 81.9264 74.4294 82.072 74.4294C82.2104 74.4294 82.3236 74.4051 82.4122 74.3566Z" fill="white"/>
</g>
</g>
<mask id="mask2_457_4867" style="mask-type:luminance" maskUnits="userSpaceOnUse" x="68" y="11" width="182" height="39">
<path d="M250 11.6242H68.038V49.5989H250V11.6242Z" fill="white"/>
</mask>
<g mask="url(#mask2_457_4867)">
<path fill-rule="evenodd" clip-rule="evenodd" d="M129.884 -65.8845C133.627 -78.8916 143.407 -87.602 156.326 -89.4343C161.003 -90.0973 167.119 -89.1408 172 -86.981C177.793 -84.4201 184.646 -78.7484 189.452 -72.5404C193.356 -67.4972 193.38 -67.26 189.627 -70.802C180.224 -79.6725 167.847 -83.0372 156.893 -79.7009C149.932 -77.5807 144.641 -73.2754 141.895 -67.4977C140.461 -64.4799 140.29 -63.7216 140.144 -59.7588C140.01 -56.1163 140.146 -54.8813 140.939 -52.5335C142.806 -47.0036 146.187 -43.1655 151.304 -40.7694C153.569 -39.7089 154.445 -39.5494 158.009 -39.5494H162.109L160.645 -38.3201C159.84 -37.644 157.9 -36.4577 156.335 -35.6841C153.669 -34.3665 153.195 -34.2782 148.866 -34.2914C143.085 -34.3085 140.324 -35.2851 136.703 -38.592C133.554 -41.4671 131.619 -44.4813 130.12 -48.8509C128.493 -53.5922 128.395 -60.7077 129.884 -65.8845ZM123.678 -69.5362C125.85 -72.8282 132.051 -79.2642 135.671 -81.9842C137.244 -83.1661 138.599 -84.1353 138.68 -84.1377C138.76 -84.14 137.755 -82.9058 136.445 -81.3964C132.085 -76.3674 129.479 -71.8089 127.713 -66.1138C126.9 -63.4914 126.695 -61.8214 126.693 -57.7818C126.689 -49.5609 128.774 -43.7718 133.595 -38.6179C137.87 -34.0471 142.649 -31.861 148.365 -31.861C156.339 -31.861 163.193 -35.9828 166.547 -42.7947C167.842 -45.425 167.968 -46.0467 167.968 -49.7907V-53.8998L169.225 -52.4359C169.917 -51.6306 171.103 -49.687 171.862 -48.1164C173.138 -45.4725 173.24 -44.9189 173.24 -40.6477C173.24 -36.3879 173.134 -35.8119 171.862 -33.1249C168.622 -26.2871 162.343 -22.1429 153.308 -20.8793C146.812 -19.9708 138.838 -21.8915 132.369 -25.9238C123.536 -31.4295 118.041 -41.1534 117.968 -51.4114C117.921 -57.9646 119.636 -63.4079 123.678 -69.5362ZM143.453 -66.243C146.535 -72.7469 152.883 -77.1574 160.96 -78.4051C166.454 -79.2532 173.342 -78.0902 178.986 -75.3618C185.665 -72.1327 190.618 -67.4301 193.57 -61.5161C198.78 -51.0806 198.182 -40.4443 191.836 -30.6717C189.095 -26.4501 182.327 -19.6993 177.634 -16.5066L174.119 -14.1153L177.853 -18.0755C187.262 -28.0532 190.519 -40.5761 186.639 -51.8538C182.141 -64.9267 169.097 -70.9729 157.364 -65.4227C150.819 -62.3263 145.956 -54.3475 146.876 -48.2135L147.186 -46.1451L146.246 -46.9948C145.729 -47.4623 144.574 -49.3289 143.677 -51.143C142.123 -54.2864 142.047 -54.648 142.047 -58.8573C142.047 -62.9146 142.161 -63.5147 143.453 -66.243ZM155.343 -61.4005C156.544 -62.6843 159.775 -64.3569 162.476 -65.0923C165.013 -65.7825 167.975 -65.819 170.912 -65.196C178.062 -63.6789 183.85 -57.5432 185.971 -49.2323C186.923 -45.5041 186.835 -38.9127 185.776 -34.7764C183.515 -25.9361 176.921 -17.4842 169.506 -13.9233C165.053 -11.7851 161.665 -10.8383 157.185 -10.4818C151.229 -10.0063 143.731 -12.1963 138.017 -16.0796C134.816 -18.2547 128.845 -24.1831 125.932 -28.0787C122.201 -33.0691 122.078 -33.5669 125.376 -30.3167C128.833 -26.9101 132.367 -24.4349 136.691 -22.3933C141.386 -20.1759 144.855 -19.408 150.175 -19.408C158.359 -19.408 164.225 -21.6631 169.321 -26.7682C172.909 -30.3628 174.511 -33.3639 175.301 -37.9735C176.665 -45.9245 172.314 -55.2104 165.627 -58.6218C162.726 -60.1019 158.689 -60.9815 156.375 -60.6375L154.349 -60.3361L155.343 -61.4005ZM84.8101 41.0063L84.8497 39.3252H70.0751V27.6559H82.3378V26.0142H70.0751V14.701H84.8101V13.0198H68.038V41.0063H84.8101ZM91.9003 41.0063V12.2286H90.0016V41.0063H91.9003ZM100.65 41.0063V21.3267H98.7714V41.0063H100.65ZM101.303 15.2152C101.409 15.0047 101.461 14.7801 101.461 14.5427C101.461 14.3054 101.409 14.0815 101.303 13.8703C101.211 13.6464 101.085 13.4549 100.927 13.2967C100.769 13.1385 100.585 13.0135 100.373 12.9209C100.163 12.8291 99.9383 12.7824 99.7009 12.7824C99.4636 12.7824 99.2397 12.8291 99.0285 12.9209C98.818 13.0135 98.6329 13.1385 98.4747 13.2967C98.3164 13.4549 98.1914 13.6464 98.0989 13.8703C98.0071 14.0815 97.9604 14.3054 97.9604 14.5427C97.9604 14.7801 98.0071 15.0047 98.0989 15.2152C98.1914 15.413 98.3164 15.591 98.4747 15.7492C98.6329 15.9074 98.818 16.0332 99.0285 16.125C99.2397 16.2176 99.4636 16.2635 99.7009 16.2635C99.9383 16.2635 100.163 16.2176 100.373 16.125C100.585 16.0332 100.769 15.9074 100.927 15.7492C101.085 15.591 101.211 15.413 101.303 15.2152ZM109.616 40.2152C110.368 40.9541 111.41 41.3228 112.741 41.3228C113.572 41.3228 114.369 41.1582 115.134 40.8283C115.912 40.4858 116.552 40.0372 117.053 39.4834L116.539 38.6527C116.434 38.5214 116.328 38.4549 116.222 38.4549C116.13 38.4549 116.005 38.5277 115.847 38.6725C115.688 38.8046 115.484 38.9565 115.233 39.1274C114.983 39.2856 114.686 39.4375 114.343 39.5823C114.001 39.7144 113.592 39.7801 113.117 39.7801C112.735 39.7801 112.379 39.7207 112.049 39.6021C111.719 39.4834 111.43 39.2991 111.179 39.0483C110.941 38.7983 110.75 38.4818 110.605 38.0989C110.473 37.7033 110.407 37.2358 110.407 36.6946V23.3442H116.618V21.9399H110.407V14.4241H109.517C109.373 14.4241 109.26 14.4707 109.181 14.5625C109.102 14.6551 109.049 14.7603 109.023 14.879L108.548 21.9201L105.186 22.1574V22.8893C105.186 23.0348 105.232 23.1464 105.324 23.2255C105.417 23.3046 105.536 23.3442 105.68 23.3442H108.509V36.7935C108.509 38.3362 108.878 39.4771 109.616 40.2152ZM134.194 26.3505C134.497 27.1812 134.649 28.1242 134.649 29.1788H121.615C121.733 28.1503 121.971 27.2207 122.327 26.39C122.683 25.5593 123.151 24.8473 123.731 24.254C124.324 23.6606 125.023 23.2057 125.828 22.8893C126.632 22.5728 127.542 22.4146 128.557 22.4146C129.453 22.4146 130.271 22.5728 131.009 22.8893C131.761 23.193 132.407 23.6345 132.948 24.2144C133.488 24.7951 133.903 25.5071 134.194 26.3505ZM121.516 30.7611V30.3853H135.835C136.02 30.3853 136.152 30.3331 136.231 30.2271C136.31 30.1218 136.35 29.9241 136.35 29.6337C136.35 28.2492 136.146 27.023 135.737 25.9549C135.341 24.8869 134.794 23.9905 134.095 23.265C133.396 22.5269 132.572 21.9668 131.623 21.5839C130.673 21.2017 129.645 21.0103 128.537 21.0103C127.139 21.0103 125.887 21.2547 124.779 21.7421C123.685 22.2302 122.756 22.909 121.99 23.7793C121.239 24.6369 120.659 25.6654 120.25 26.8647C119.854 28.0514 119.657 29.3505 119.657 30.7611C119.657 32.4359 119.868 33.9256 120.29 35.231C120.725 36.5237 121.338 37.6179 122.129 38.5143C122.92 39.4114 123.869 40.0965 124.977 40.5712C126.085 41.0332 127.311 41.2635 128.656 41.2635C129.394 41.2635 130.126 41.1915 130.851 41.0459C131.589 40.9011 132.275 40.7097 132.908 40.4723C133.555 40.2223 134.134 39.9256 134.649 39.5823C135.176 39.2397 135.598 38.8703 135.915 38.4747L135.4 37.8418C135.308 37.7105 135.176 37.644 135.005 37.644C134.873 37.644 134.662 37.7563 134.372 37.9802C134.081 38.1915 133.686 38.4351 133.185 38.712C132.697 38.9763 132.091 39.2199 131.366 39.4438C130.64 39.6551 129.783 39.7603 128.794 39.7603C127.687 39.7603 126.684 39.5696 125.788 39.1867C124.892 38.8046 124.127 38.2374 123.494 37.4858C122.861 36.7215 122.373 35.7785 122.03 34.6574C121.687 33.5372 121.516 32.2381 121.516 30.7611ZM164.373 41.0063L175.923 12.4067H171.631C171.183 12.4067 170.801 12.5324 170.484 12.7824C170.18 13.0332 169.976 13.3101 169.871 13.6131L163.166 31.0578C162.941 31.625 162.737 32.2516 162.553 32.9367C162.368 33.6092 162.197 34.3149 162.039 35.053C161.854 34.3149 161.656 33.6092 161.445 32.9367C161.248 32.2516 161.036 31.625 160.812 31.0578L154.068 13.6131C153.922 13.2571 153.705 12.9676 153.415 12.7429C153.125 12.519 152.749 12.4067 152.288 12.4067H148.016L159.566 41.0063H164.373ZM182.259 32.7191C183.222 32.5348 184.408 32.4098 185.819 32.3434V35.765C185.12 36.504 184.401 37.0578 183.663 37.4264C182.937 37.7824 182.074 37.9604 181.072 37.9604C180.255 37.9604 179.589 37.7761 179.074 37.4067C178.574 37.038 178.323 36.4248 178.323 35.5673C178.323 35.1321 178.448 34.7302 178.699 34.3608C178.949 33.9921 179.365 33.6685 179.945 33.3916C180.525 33.1147 181.296 32.8908 182.259 32.7191ZM183.05 20.3378C179.767 20.3378 176.958 21.4059 174.624 23.5419L175.494 25.1044C175.639 25.3418 175.831 25.553 176.068 25.7373C176.305 25.909 176.596 25.9945 176.938 25.9945C177.334 25.9945 177.69 25.9027 178.006 25.7176C178.336 25.5332 178.699 25.3291 179.094 25.1044C179.49 24.8671 179.945 24.6567 180.459 24.4715C180.987 24.2872 181.646 24.1946 182.437 24.1946C183.531 24.1946 184.369 24.5245 184.949 25.1836C185.528 25.8299 185.819 26.8323 185.819 28.1899V29.3766C184.276 29.4161 182.905 29.5348 181.705 29.7326C180.505 29.9177 179.45 30.1614 178.54 30.4644C177.644 30.7682 176.885 31.1242 176.266 31.5324C175.646 31.9415 175.138 32.3766 174.743 32.8378C174.361 33.2999 174.084 33.7872 173.912 34.3014C173.74 34.803 173.655 35.3101 173.655 35.8244C173.655 36.7342 173.8 37.5324 174.09 38.2176C174.381 38.9035 174.789 39.4771 175.316 39.9383C175.844 40.4003 176.47 40.7492 177.195 40.9866C177.921 41.2112 178.712 41.3228 179.569 41.3228C180.294 41.3228 180.953 41.2571 181.547 41.125C182.153 41.0063 182.72 40.8283 183.248 40.591C183.775 40.3537 184.282 40.0641 184.771 39.7207C185.259 39.3647 185.759 38.9565 186.274 38.4945L186.709 39.9581C186.854 40.3805 187.051 40.6638 187.302 40.8086C187.553 40.9407 187.909 41.0063 188.37 41.0063H190.585V28.1899C190.585 27.0427 190.414 25.9881 190.071 25.0253C189.741 24.0633 189.254 23.2389 188.608 22.553C187.961 21.8544 187.17 21.3141 186.234 20.9312C185.298 20.5356 184.237 20.3378 183.05 20.3378ZM204.186 30.1282C203.737 30.2864 203.21 30.3655 202.604 30.3655C202.01 30.3655 201.483 30.2864 201.021 30.1282C200.573 29.9573 200.197 29.7263 199.894 29.4359C199.604 29.1329 199.38 28.7769 199.222 28.3679C199.076 27.9597 199.004 27.5174 199.004 27.0427C199.004 26.0412 199.301 25.25 199.894 24.6693C200.5 24.076 201.403 23.7793 202.604 23.7793C203.803 23.7793 204.7 24.076 205.294 24.6693C205.9 25.25 206.203 26.0412 206.203 27.0427C206.203 27.5309 206.124 27.9794 205.966 28.3877C205.82 28.7967 205.597 29.1464 205.294 29.4359C205.003 29.7263 204.634 29.9573 204.186 30.1282ZM207.766 40.947C208.003 41.1978 208.122 41.5206 208.122 41.9161C208.122 42.3117 208.023 42.6748 207.825 43.004C207.627 43.3473 207.311 43.6369 206.876 43.8742C206.453 44.125 205.913 44.3165 205.254 44.4478C204.594 44.5934 203.81 44.6654 202.9 44.6654C202.003 44.6654 201.245 44.5997 200.626 44.4676C200.006 44.3489 199.498 44.178 199.103 43.9533C198.72 43.7294 198.437 43.4589 198.252 43.1424C198.081 42.8394 197.995 42.5095 197.995 42.1535C197.995 41.6131 198.16 41.1385 198.49 40.7294C198.832 40.3212 199.274 39.9652 199.815 39.6614C200.434 39.7405 201.067 39.7935 201.714 39.8196C202.373 39.8465 203.006 39.879 203.612 39.9185C204.232 39.9454 204.812 39.9913 205.353 40.057C205.907 40.1234 206.388 40.2286 206.797 40.3734C207.205 40.5055 207.528 40.697 207.766 40.947ZM212.987 23.2255V21.4059H207.153C206.52 21.0633 205.82 20.8062 205.056 20.6345C204.291 20.4502 203.474 20.3576 202.604 20.3576C201.443 20.3576 200.369 20.5095 199.38 20.8125C198.403 21.1163 197.553 21.5578 196.828 22.1377C196.116 22.7049 195.555 23.3972 195.147 24.2144C194.752 25.019 194.554 25.9225 194.554 26.9241C194.554 28.1638 194.843 29.2453 195.424 30.1677C196.017 31.091 196.828 31.8291 197.857 32.3829C197.408 32.6076 197.019 32.8647 196.69 33.1543C196.36 33.4312 196.083 33.7279 195.859 34.0443C195.648 34.3608 195.483 34.6843 195.365 35.0135C195.259 35.3299 195.206 35.64 195.206 35.943C195.206 36.6946 195.365 37.3014 195.681 37.7627C195.998 38.2247 196.426 38.5934 196.967 38.8703C195.964 39.2532 195.173 39.7674 194.593 40.413C194.026 41.0459 193.743 41.837 193.743 42.7864C193.743 43.4858 193.927 44.1582 194.297 44.8038C194.665 45.4502 195.226 46.0174 195.978 46.5048C196.729 47.0063 197.672 47.4019 198.806 47.6915C199.94 47.9953 201.271 48.1464 202.801 48.1464C204.357 48.1464 205.741 47.9423 206.955 47.5332C208.181 47.1377 209.21 46.6108 210.04 45.951C210.884 45.2919 211.524 44.5404 211.959 43.6962C212.407 42.8529 212.631 41.9826 212.631 41.0855C212.631 40.1234 212.44 39.3386 212.058 38.7318C211.688 38.1123 211.194 37.6242 210.574 37.2682C209.954 36.9122 209.249 36.6551 208.458 36.4968C207.667 36.326 206.856 36.2073 206.025 36.1408C205.195 36.0752 204.384 36.0356 203.593 36.0222C202.801 35.996 202.096 35.943 201.476 35.8639C200.856 35.7848 200.355 35.6535 199.973 35.4684C199.604 35.2706 199.419 34.9676 199.419 34.5586C199.419 34.0839 199.736 33.6559 200.369 33.273C200.725 33.3394 201.087 33.3916 201.456 33.4312C201.825 33.4707 202.208 33.4905 202.604 33.4905C203.724 33.4905 204.766 33.3394 205.729 33.0356C206.704 32.7192 207.548 32.2777 208.26 31.7105C208.972 31.144 209.526 30.4581 209.922 29.6535C210.33 28.8362 210.535 27.9264 210.535 26.9241C210.535 26.0934 210.396 25.3291 210.119 24.6298L211.939 24.2935C212.638 24.1622 212.987 23.8062 212.987 23.2255ZM223.245 32.7191C224.207 32.5348 225.394 32.4098 226.805 32.3434V35.765C226.106 36.504 225.388 37.0578 224.65 37.4264C223.924 37.7824 223.06 37.9604 222.059 37.9604C221.241 37.9604 220.575 37.7761 220.061 37.4067C219.559 37.038 219.309 36.4248 219.309 35.5673C219.309 35.1321 219.434 34.7302 219.685 34.3608C219.935 33.9921 220.35 33.6685 220.931 33.3916C221.511 33.1147 222.282 32.8908 223.245 32.7191ZM224.036 20.3378C220.753 20.3378 217.945 21.4059 215.611 23.5419L216.481 25.1044C216.626 25.3418 216.817 25.553 217.055 25.7373C217.292 25.909 217.581 25.9945 217.925 25.9945C218.32 25.9945 218.676 25.9027 218.993 25.7176C219.322 25.5332 219.685 25.3291 220.081 25.1044C220.476 24.8671 220.931 24.6567 221.445 24.4715C221.972 24.2872 222.632 24.1946 223.423 24.1946C224.517 24.1946 225.354 24.5245 225.935 25.1836C226.515 25.8299 226.805 26.8323 226.805 28.1899V29.3766C225.263 29.4161 223.891 29.5348 222.691 29.7326C221.491 29.9177 220.437 30.1614 219.527 30.4644C218.63 30.7682 217.872 31.1242 217.252 31.5324C216.632 31.9415 216.125 32.3766 215.729 32.8378C215.347 33.2999 215.07 33.7872 214.899 34.3014C214.727 34.803 214.642 35.3101 214.642 35.8244C214.642 36.7342 214.786 37.5324 215.077 38.2176C215.366 38.9035 215.775 39.4771 216.303 39.9383C216.83 40.4003 217.456 40.7492 218.182 40.9866C218.907 41.2112 219.698 41.3228 220.555 41.3228C221.28 41.3228 221.94 41.2571 222.533 41.125C223.139 41.0063 223.706 40.8283 224.234 40.591C224.761 40.3537 225.269 40.0641 225.757 39.7207C226.244 39.3647 226.746 38.9565 227.26 38.4945L227.695 39.9581C227.84 40.3805 228.038 40.6638 228.289 40.8086C228.539 40.9407 228.895 41.0063 229.357 41.0063H231.572V28.1899C231.572 27.0427 231.4 25.9881 231.058 25.0253C230.728 24.0633 230.24 23.2389 229.594 22.553C228.948 21.8544 228.157 21.3141 227.221 20.9312C226.284 20.5356 225.223 20.3378 224.036 20.3378ZM248.138 25.1242C248.284 25.0324 248.422 24.8805 248.554 24.6693L249.661 22.909C248.897 22.1574 247.941 21.5514 246.793 21.0894C245.646 20.6282 244.374 20.3972 242.976 20.3972C241.724 20.3972 240.616 20.5688 239.653 20.9114C238.704 21.2413 237.907 21.6899 237.26 22.2563C236.627 22.8101 236.146 23.4628 235.816 24.2144C235.487 24.966 235.322 25.7571 235.322 26.5878C235.322 27.485 235.46 28.2492 235.737 28.8821C236.028 29.515 236.403 30.0491 236.865 30.4842C237.339 30.9193 237.873 31.2824 238.467 31.572C239.074 31.8489 239.687 32.0934 240.306 32.3038C240.939 32.515 241.552 32.7128 242.146 32.8972C242.752 33.0688 243.286 33.2666 243.748 33.4905C244.222 33.7152 244.598 33.9786 244.875 34.2817C245.165 34.5855 245.31 34.9739 245.31 35.4486C245.31 35.765 245.244 36.0752 245.112 36.3782C244.994 36.6685 244.796 36.9256 244.519 37.1495C244.256 37.3742 243.913 37.5585 243.49 37.7033C243.082 37.8354 242.588 37.9011 242.007 37.9011C241.269 37.9011 240.656 37.8157 240.168 37.644C239.693 37.4731 239.278 37.288 238.922 37.0902C238.566 36.8924 238.249 36.7081 237.972 36.5364C237.709 36.3655 237.426 36.2793 237.122 36.2793C236.819 36.2793 236.568 36.3386 236.37 36.4573C236.172 36.576 236.002 36.7476 235.856 36.9715L234.729 38.8307C235.124 39.1867 235.579 39.5166 236.093 39.8196C236.621 40.1234 237.188 40.3869 237.794 40.6108C238.415 40.8355 239.054 41.0063 239.713 41.125C240.385 41.2571 241.071 41.3228 241.77 41.3228C243.089 41.3228 244.249 41.1582 245.251 40.8283C246.267 40.4858 247.117 40.0174 247.802 39.4241C248.488 38.818 249.002 38.106 249.345 37.288C249.701 36.4573 249.879 35.5546 249.879 34.5783C249.879 33.7611 249.734 33.0625 249.444 32.4818C249.167 31.9019 248.791 31.4074 248.316 30.9984C247.855 30.5768 247.328 30.2342 246.734 29.9699C246.141 29.693 245.535 29.4494 244.915 29.2381C244.309 29.0277 243.708 28.8362 243.115 28.6646C242.521 28.4802 241.987 28.2761 241.513 28.0514C241.051 27.8275 240.676 27.5704 240.385 27.2801C240.108 26.9771 239.97 26.6076 239.97 26.1725C239.97 25.5135 240.24 24.9794 240.781 24.5704C241.335 24.1622 242.093 23.9573 243.055 23.9573C243.676 23.9573 244.21 24.0237 244.657 24.1551C245.119 24.2872 245.528 24.4391 245.884 24.61C246.24 24.7682 246.55 24.9138 246.813 25.0451C247.09 25.1772 247.347 25.2429 247.585 25.2429C247.809 25.2429 247.994 25.2033 248.138 25.1242Z" fill="white"/>
</g>
</svg>
