<svg width="24" height="24" viewBox="0 0 24 24" fill="none" xmlns="http://www.w3.org/2000/svg">
<path d="M23.5002 5.28649C23.5002 7.39697 21.6938 9.15012 19.412 9.15012C17.1302 9.15012 15.3237 7.39697 15.3237 5.28649C15.3237 3.17601 17.1302 1.42285 19.412 1.42285C21.6938 1.42285 23.5002 3.17601 23.5002 5.28649Z" fill="white" stroke="white"/>
<path d="M8.67647 11.9999C8.67647 14.1103 6.87005 15.8635 4.58824 15.8635C2.30642 15.8635 0.5 14.1103 0.5 11.9999C0.5 9.88939 2.30642 8.13623 4.58824 8.13623C6.87005 8.13623 8.67647 9.88939 8.67647 11.9999Z" fill="white" stroke="white"/>
<path d="M23.5002 18.7132C23.5002 20.8237 21.6938 22.5769 19.412 22.5769C17.1302 22.5769 15.3237 20.8237 15.3237 18.7132C15.3237 16.6028 17.1302 14.8496 19.412 14.8496C21.6938 14.8496 23.5002 16.6028 23.5002 18.7132Z" fill="white" stroke="white"/>
<line y1="-0.5" x2="7.90211" y2="-0.5" transform="matrix(0.803955 -0.59469 0.633066 0.774098 9.17627 11.6641)" stroke="white"/>
<line y1="-0.5" x2="7.96819" y2="-0.5" transform="matrix(0.899236 0.437464 -0.473684 0.880695 8.4707 14.3496)" stroke="white"/>
</svg>
